<?xml version="1.0" encoding="utf-8"?>
<!-- Generator: Adobe Illustrator 18.1.0, SVG Export Plug-In . SVG Version: 6.00 Build 0)  -->
<svg version="1.1" id="Layer_1" xmlns="http://www.w3.org/2000/svg" xmlns:xlink="http://www.w3.org/1999/xlink" x="0px" y="0px"
	 viewBox="0 0 191 164.3" enable-background="new 0 0 191 164.3" xml:space="preserve">
<path fill="#FFFFFF" d="M155.1,51H35.9c-5.5,0-10-4.5-10-10v0c0-5.5,4.5-10,10-10h119.2c5.5,0,10,4.5,10,10v0
	C165.1,46.5,160.6,51,155.1,51z"/>
<path fill="#FFFFFF" d="M155.1,136.6H35.9c-5.5,0-10-4.5-10-10v0c0-5.5,4.5-10,10-10h119.2c5.5,0,10,4.5,10,10v0
	C165.1,132.2,160.6,136.6,155.1,136.6z"/>
<path fill="#FFFFFF" d="M155.1,93.2H35.9c-5.5,0-10-4.5-10-10v0c0-5.5,4.5-10,10-10h119.2c5.5,0,10,4.5,10,10v0
	C165.1,88.8,160.6,93.2,155.1,93.2z"/>
<rect x="0" y="0" fill="none" width="191" height="164.3"/>
</svg>
