<?xml version="1.0" encoding="utf-8"?>
<!-- Generator: Adobe Illustrator 18.1.0, SVG Export Plug-In . SVG Version: 6.00 Build 0)  -->
<svg version="1.1" id="Layer_1" xmlns="http://www.w3.org/2000/svg" xmlns:xlink="http://www.w3.org/1999/xlink" x="0px" y="0px"
	 viewBox="0 0 158.8 108" enable-background="new 0 0 158.8 108" xml:space="preserve">
<path fill="#FFFFFF" d="M148.6,20.3H10.2C4.6,20.3,0,15.8,0,10.2v0C0,4.6,4.6,0,10.2,0l138.4,0c5.6,0,10.2,4.6,10.2,10.2v0
	C158.8,15.8,154.2,20.3,148.6,20.3z"/>
<path fill="#FFFFFF" d="M148.6,64.2H10.2C4.6,64.2,0,59.6,0,54v0c0-5.6,4.6-10.2,10.2-10.2h138.4c5.6,0,10.2,4.6,10.2,10.2v0
	C158.8,59.6,154.2,64.2,148.6,64.2z"/>
<path fill="#FFFFFF" d="M148.6,108H10.2C4.6,108,0,103.4,0,97.8v0c0-5.6,4.6-10.2,10.2-10.2h138.4c5.6,0,10.2,4.6,10.2,10.2v0
	C158.8,103.4,154.2,108,148.6,108z"/>
</svg>
