<?xml version="1.0" encoding="utf-8"?>
<!-- Generator: Adobe Illustrator 18.1.0, SVG Export Plug-In . SVG Version: 6.00 Build 0)  -->
<svg version="1.1" id="Layer_1" xmlns="http://www.w3.org/2000/svg" xmlns:xlink="http://www.w3.org/1999/xlink" x="0px" y="0px"
	 viewBox="0 0 80 80" enable-background="new 0 0 80 80" xml:space="preserve">
<path fill="#FFFFFF" d="M33.2,13.6H6.8c-1.3,0-2.4-1.1-2.4-2.4v0c0-1.3,1.1-2.4,2.4-2.4h26.4c1.3,0,2.4,1.1,2.4,2.4v0
	C35.6,12.5,34.5,13.6,33.2,13.6z"/>
<path fill="#FFFFFF" d="M33.2,22.4H6.8c-1.3,0-2.4-1.1-2.4-2.4v0c0-1.3,1.1-2.4,2.4-2.4h26.4c1.3,0,2.4,1.1,2.4,2.4v0
	C35.6,21.4,34.5,22.4,33.2,22.4z"/>
<path fill="#FFFFFF" d="M33.2,31.2H6.8c-1.3,0-2.4-1.1-2.4-2.4v0c0-1.3,1.1-2.4,2.4-2.4h26.4c1.3,0,2.4,1.1,2.4,2.4v0
	C35.6,30.1,34.5,31.2,33.2,31.2z"/>
<path d="M33.2,53.6H6.8c-1.3,0-2.4-1.1-2.4-2.4v0c0-1.3,1.1-2.4,2.4-2.4h26.4c1.3,0,2.4,1.1,2.4,2.4v0
	C35.6,52.5,34.5,53.6,33.2,53.6z"/>
<path d="M33.2,62.4H6.8c-1.3,0-2.4-1.1-2.4-2.4v0c0-1.3,1.1-2.4,2.4-2.4h26.4c1.3,0,2.4,1.1,2.4,2.4v0
	C35.6,61.4,34.5,62.4,33.2,62.4z"/>
<path d="M33.2,71.2H6.8c-1.3,0-2.4-1.1-2.4-2.4l0,0c0-1.3,1.1-2.4,2.4-2.4h26.4c1.3,0,2.4,1.1,2.4,2.4l0,0
	C35.6,70.1,34.5,71.2,33.2,71.2z"/>
<circle fill="none" stroke="#FFFFFF" stroke-width="4" stroke-miterlimit="10" cx="60" cy="20" r="11.1"/>
<circle fill="none" stroke="#000000" stroke-width="4" stroke-miterlimit="10" cx="60" cy="60.1" r="11.1"/>
</svg>
