<?xml version="1.0" encoding="utf-8"?>
<!-- Generator: Adobe Illustrator 18.1.0, SVG Export Plug-In . SVG Version: 6.00 Build 0)  -->
<svg version="1.1" id="Layer_1" xmlns="http://www.w3.org/2000/svg" xmlns:xlink="http://www.w3.org/1999/xlink" x="0px" y="0px"
	 viewBox="0 0 483.6 176.4" enable-background="new 0 0 483.6 176.4" xml:space="preserve">
<g>
	<path fill="#FFFFFF" d="M150.7,37.4c-13.6-16.2-37.4-27.1-59.2-27.1c-44,0-80.3,36.9-80.3,79.1c0,20.1,8.9,39,23.6,53.1
		c14.7,13.7,35.8,23.7,56.6,23.7c20.4,0,46.1-10.7,59.2-26.2v15c-16.6,13.4-37,21.4-58.7,21.4c-49.1,0-92-39.9-92-88
		C0,39.7,42.1,0,92.2,0c21.3,0,42.8,8.2,58.5,22.3V37.4z"/>
</g>
<g>
	<path fill="#FFFFFF" d="M215.8,79.9H205l-21.1-30.3h-3.7v30.3h-8.9V8.2h10.8c6.4,0,13.2,0.1,18.9,3.3c6,3.5,9.4,10.3,9.4,17.1
		c0,10.3-6.8,18.8-17.2,20L215.8,79.9z M180.2,42.1h2.8c9.1,0,19-1.7,19-13.1c0-11.2-10.6-12.8-19.5-12.8h-2.4V42.1z"/>
	<path fill="#FFFFFF" d="M233,61.9l-8.2,18h-9.6l34.2-74.7l34.2,74.7h-9.6l-8.2-18H233z M249.4,24.8l-12.7,29h25.5L249.4,24.8z"/>
	<path fill="#FFFFFF" d="M298.5,16.4v20.1h24.9v8.2h-24.9v35.2h-8.9V8.2h34.7v8.2H298.5z"/>
	<path fill="#FFFFFF" d="M355.8,79.9h-8.9V16.4h-17V8.2h42.9v8.2h-17V79.9z"/>
	<path fill="#FFFFFF" d="M379.9,8.2h38.5v8.2h-29.5v20h28.7v8.2h-28.7v27.1h29.5v8.2h-38.5V8.2z"/>
	<path fill="#FFFFFF" d="M428.6,8.2h14.8c21.9,0,40.2,11.6,40.2,35.4c0,24.4-17.9,36.2-40.5,36.2h-14.5V8.2z M437.5,71.7h3.1
		c18.2,0,34-6.8,34-27.6c0-20.9-15.8-27.6-34-27.6h-3.1V71.7z"/>
	<path fill="#FFFFFF" d="M179,103.2v42.3c0,11.7,3.5,22.5,17.3,22.5s17.3-10.8,17.3-22.5v-42.3h8.9v45.3c0,15.8-9.8,27.8-26.2,27.8
		c-16.4,0-26.2-12.1-26.2-27.8v-45.3H179z"/>
	<path fill="#FFFFFF" d="M245.6,166.7h21.8v8.2h-30.7v-71.6h8.9V166.7z"/>
	<path fill="#FFFFFF" d="M291.6,174.9h-8.9v-63.5h-17v-8.2h42.9v8.2h-17V174.9z"/>
	<path fill="#FFFFFF" d="M325.3,103.2v42.3c0,11.7,3.5,22.5,17.3,22.5s17.3-10.8,17.3-22.5v-42.3h8.9v45.3
		c0,15.8-9.8,27.8-26.2,27.8c-16.4,0-26.2-12.1-26.2-27.8v-45.3H325.3z"/>
	<path fill="#FFFFFF" d="M427.6,174.9h-10.8l-21.1-30.3h-3.7v30.3H383v-71.6h10.8c6.4,0,13.2,0.1,18.9,3.3c6,3.5,9.4,10.3,9.4,17.1
		c0,10.3-6.8,18.8-17.2,20L427.6,174.9z M391.9,137.1h2.8c9.1,0,19-1.7,19-13.1c0-11.2-10.6-12.8-19.5-12.8h-2.4V137.1z"/>
	<path fill="#FFFFFF" d="M436.5,103.2H475v8.2h-29.5v20h28.7v8.2h-28.7v27.1H475v8.2h-38.5V103.2z"/>
</g>
</svg>
